<?xml version="1.0" encoding="utf-8"?>
<!-- Generator: Adobe Illustrator 16.0.0, SVG Export Plug-In . SVG Version: 6.00 Build 0)  -->
<!DOCTYPE svg PUBLIC "-//W3C//DTD SVG 1.1//EN" "http://www.w3.org/Graphics/SVG/1.1/DTD/svg11.dtd">
<svg version="1.1" id="图层_1" xmlns="http://www.w3.org/2000/svg" xmlns:xlink="http://www.w3.org/1999/xlink" x="0px" y="0px"
	 width="19px" height="12px" viewBox="0 0 19 12" enable-background="new 0 0 19 12" xml:space="preserve">
<path fill="#898989" d="M18.977,6.166c-0.008,0.027-0.004,0.057-0.014,0.083c-0.004,0.01-0.012,0.017-0.016,0.027
	c-0.006,0.017-0.004,0.033-0.014,0.049c-1.724,3.627-5.475,5.676-9.434,5.676s-7.711-2.053-9.435-5.68
	C0.058,6.306,0.059,6.287,0.053,6.272C0.049,6.262,0.04,6.256,0.036,6.244C0.027,6.218,0.031,6.188,0.025,6.161
	c-0.011-0.05-0.021-0.096-0.021-0.147c0-0.049,0.01-0.097,0.021-0.145c0.006-0.028,0.002-0.057,0.011-0.084
	c0.004-0.01,0.013-0.016,0.017-0.027C0.059,5.741,0.058,5.725,0.065,5.71c1.724-3.628,5.513-5.712,9.472-5.712
	s7.673,2.088,9.396,5.715c0.01,0.015,0.008,0.033,0.014,0.049c0.004,0.01,0.012,0.016,0.016,0.028
	c0.01,0.027,0.006,0.056,0.014,0.083c0.01,0.05,0.02,0.097,0.02,0.146C18.996,6.069,18.986,6.117,18.977,6.166z M9.537,1.088
	c-3.366,0-6.714,1.668-8.323,4.927c1.624,3.271,4.929,4.897,8.286,4.897c3.366,0,6.677-1.635,8.285-4.893
	C16.176,2.758,12.902,1.088,9.537,1.088z M9.564,9.292c-1.963,0-3.555-1.463-3.555-3.268s1.592-3.268,3.555-3.268
	c1.963,0,3.556,1.463,3.556,3.268S11.527,9.292,9.564,9.292z M9.537,3.821c-1.307,0-2.37,0.978-2.37,2.179s1.09,2.203,2.397,2.203
	c1.308,0,2.343-1.002,2.343-2.203S10.844,3.821,9.537,3.821z"/>
</svg>
